<svg xmlns="http://www.w3.org/2000/svg" viewBox="0 0 297.6 297.6">
  <g fill="#FFFFFF">
    <circle cx="15.3" cy="14.8" r="14.8"/>
    <circle cx="59.3" cy="59.8" r="14.8"/>
    <circle cx="59.3" cy="14.8" r="14.8"/>
    <circle cx="104.3" cy="59.8" r="14.8"/>
    <circle cx="104.3" cy="103.8" r="14.8"/>
    <circle cx="104.3" cy="14.8" r="14.8"/>
    <circle cx="148.3" cy="59.8" r="14.8"/>
    <circle cx="148.3" cy="103.8" r="14.8"/>
    <circle cx="148.3" cy="14.8" r="14.8"/>
    <circle cx="192.3" cy="59.8" r="14.8"/>
    <circle cx="192.3" cy="103.8" r="14.8"/>
    <circle cx="148.3" cy="147.9" r="14.8"/>
    <circle cx="192.3" cy="147.9" r="14.8"/>
    <circle cx="104.3" cy="192.8" r="14.8"/>
    <circle cx="148.3" cy="192.8" r="14.8"/>
    <circle cx="192.3" cy="192.8" r="14.8"/>
    <circle cx="59.3" cy="236.9" r="14.8"/>
    <circle cx="104.3" cy="236.9" r="14.8"/>
    <circle cx="148.3" cy="236.9" r="14.8"/>
    <circle cx="192.3" cy="236.9" r="14.8"/>
    <circle cx="238.2" cy="103.8" r="14.8"/>
    <circle cx="238.2" cy="147.9" r="14.8"/>
    <circle cx="238.2" cy="192.8" r="14.8"/>
    <circle cx="15.3" cy="282.8" r="14.8"/>
    <circle cx="59.3" cy="282.8" r="14.8"/>
    <circle cx="104.3" cy="282.8" r="14.8"/>
    <circle cx="148.3" cy="282.8" r="14.8"/>
    <circle cx="282.3" cy="147.9" r="14.8"/>
  </g>
</svg>